<svg xmlns="http://www.w3.org/2000/svg" width="18.5" height="21.5" viewBox="0 0 18.5 21.5">
  <g id="Group_617" data-name="Group 617" transform="translate(-29.972 -29)">
    <g id="Iconly_Bold_Notification" data-name="Iconly/Bold/Notification" transform="translate(29.972 29)">
      <g id="Notification">
        <path id="Notification-2" data-name="Notification" d="M8.687,21.464a3.964,3.964,0,0,1-1.865-.788,1.664,1.664,0,0,1-.757-1.261c0-.542.5-.789.968-.9a28.591,28.591,0,0,1,4.4,0c.465.106.968.354.968.9a1.666,1.666,0,0,1-.756,1.262,3.981,3.981,0,0,1-1.864.787,4.4,4.4,0,0,1-.556.036A4.039,4.039,0,0,1,8.687,21.464ZM4.1,16.928A4.959,4.959,0,0,1,.94,15.409,3.857,3.857,0,0,1,0,12.852a3.591,3.591,0,0,1,.8-2.484A4.054,4.054,0,0,0,1.952,7.306V6.848A6,6,0,0,1,3.349,2.7,7.736,7.736,0,0,1,9.2,0h.1a7.7,7.7,0,0,1,5.949,2.821,5.914,5.914,0,0,1,1.3,4.027v.458A4.152,4.152,0,0,0,17.7,10.369a3.587,3.587,0,0,1,.8,2.484,3.857,3.857,0,0,1-.939,2.557,4.963,4.963,0,0,1-3.156,1.519c-1.71.143-3.421.265-5.155.265A45.919,45.919,0,0,1,4.1,16.928Z" fill="#f9f9f3"/>
      </g>
    </g>
  </g>
</svg>
