<svg xmlns="http://www.w3.org/2000/svg" width="20.74" height="16.012" viewBox="0 0 20.74 16.012">
  <g id="Iconly_Light_3_User" data-name="Iconly/Light/3 User" transform="translate(0.75 0.75)">
    <g id="_3_User" data-name="3 User">
      <path id="Stroke_1" data-name="Stroke 1" d="M0,5.388a2.729,2.729,0,0,0,2.346-2.7A2.728,2.728,0,0,0,.063,0" transform="translate(15.316 0.92)" fill="none" stroke="#707070" stroke-linecap="round" stroke-linejoin="round" stroke-miterlimit="10" stroke-width="1.5"/>
      <path id="Stroke_3" data-name="Stroke 3" d="M0,0C1.282.192,2.177.641,2.177,1.566c0,.637-.421,1.051-1.1,1.311" transform="translate(17.063 9.491)" fill="none" stroke="#707070" stroke-linecap="round" stroke-linejoin="round" stroke-miterlimit="10" stroke-width="1.5"/>
      <path id="Stroke_5" data-name="Stroke 5" d="M5.655,0C2.605,0,0,.462,0,2.308s2.589,2.32,5.655,2.32c3.05,0,5.655-.457,5.655-2.3S8.722,0,5.655,0Z" transform="translate(3.965 9.883)" fill="none" stroke="#707070" stroke-linecap="round" stroke-linejoin="round" stroke-miterlimit="10" stroke-width="1.5"/>
      <path id="Stroke_7" data-name="Stroke 7" d="M3.624,7.249a3.611,3.611,0,1,0-.027,0Z" transform="translate(5.996)" fill="none" stroke="#707070" stroke-linecap="round" stroke-linejoin="round" stroke-miterlimit="10" stroke-width="1.5"/>
      <path id="Stroke_9" data-name="Stroke 9" d="M2.346,5.388A2.725,2.725,0,0,1,2.283,0" transform="translate(1.578 0.92)" fill="none" stroke="#707070" stroke-linecap="round" stroke-linejoin="round" stroke-miterlimit="10" stroke-width="1.5"/>
      <path id="Stroke_11" data-name="Stroke 11" d="M2.177,0C.895.192,0,.641,0,1.566,0,2.2.421,2.617,1.1,2.877" transform="translate(0 9.491)" fill="none" stroke="#707070" stroke-linecap="round" stroke-linejoin="round" stroke-miterlimit="10" stroke-width="1.5"/>
    </g>
  </g>
</svg>
