<svg id="Heart" xmlns="http://www.w3.org/2000/svg" width="24" height="24" viewBox="0 0 24 24">
  <path id="Heart-2" data-name="Heart" d="M12.039,24h0l-.31-.2a46.2,46.2,0,0,1-7.643-6.266A16.557,16.557,0,0,1,.472,11.47,10.266,10.266,0,0,1,.643,4.807,7.466,7.466,0,0,1,5.189.34,5.18,5.18,0,0,1,6.256.076H6.4A6.509,6.509,0,0,1,7.408,0H7.54a7.184,7.184,0,0,1,2.2.417h.071a.4.4,0,0,1,.108.075,3.941,3.941,0,0,1,.756.33l.456.214a3.145,3.145,0,0,1,.342.24c.069.052.128.1.174.128l.049.03A2.907,2.907,0,0,1,12,1.642,7.231,7.231,0,0,1,16.571,0h.053a6.673,6.673,0,0,1,2.232.367A7.388,7.388,0,0,1,23.363,4.81a10.493,10.493,0,0,1,.185,6.66,16.29,16.29,0,0,1-3.61,6.075,46.747,46.747,0,0,1-7.6,6.265l-.3.189ZM17.929,3.938a.976.976,0,0,0-.908.685,1.05,1.05,0,0,0,.6,1.3A2.118,2.118,0,0,1,18.9,7.907v.039a1.126,1.126,0,0,0,.228.783.993.993,0,0,0,.684.366,1.012,1.012,0,0,0,.948-.961v-.15a4.176,4.176,0,0,0-2.532-3.993A.893.893,0,0,0,17.929,3.938Z" fill="#f9f9f3"/>
</svg>
