<svg id="Iconly_Light-Outline_Edit_Square" data-name="Iconly/Light-Outline/Edit Square" xmlns="http://www.w3.org/2000/svg" width="11.128" height="11.145" viewBox="0 0 11.128 11.145">
  <g id="Edit_Square" data-name="Edit Square" transform="translate(0 0)">
    <path id="Combined_Shape" data-name="Combined Shape" d="M3.148,11.145A3.049,3.049,0,0,1,0,7.857V3.308A3.049,3.049,0,0,1,3.148.02H5.194a.41.41,0,0,1,0,.821H3.148A2.249,2.249,0,0,0,.821,3.308V7.857a2.249,2.249,0,0,0,2.327,2.467H7.976A2.249,2.249,0,0,0,10.3,7.857v-2.2a.41.41,0,0,1,.821,0v2.2a3.049,3.049,0,0,1-3.148,3.288Zm.19-2.977a.412.412,0,0,1-.411-.421l.052-2.068a1.591,1.591,0,0,1,.467-1.09L7.535.5A1.717,1.717,0,0,1,9.959.5l.666.666a1.714,1.714,0,0,1,0,2.425L6.517,7.7a1.587,1.587,0,0,1-1.13.468Zm.688-3A.772.772,0,0,0,3.8,5.7L3.758,7.347H5.387a.771.771,0,0,0,.55-.228L9.129,3.928,7.2,2ZM9.709,3.348l.337-.337a.894.894,0,0,0,0-1.264L9.38,1.081a.9.9,0,0,0-1.265,0l-.336.336Z" transform="translate(0 0)" fill="#fff"/>
  </g>
</svg>
