<svg id="Iconly_Light-Outline_Bag_2" data-name="Iconly/Light-Outline/Bag 2" xmlns="http://www.w3.org/2000/svg" width="19.5" height="20" viewBox="0 0 19.5 20">
  <g id="Bag_2" data-name="Bag 2" transform="translate(0 0)">
    <path id="Combined_Shape" data-name="Combined Shape" d="M5.008,20A5.011,5.011,0,0,1,0,15V9.48a5.012,5.012,0,0,1,5.008-5h.2A4.5,4.5,0,0,1,6.55,1.311,4.69,4.69,0,0,1,9.754,0a4.528,4.528,0,0,1,4.519,4.475h.219a5.012,5.012,0,0,1,5.009,5V15a5.012,5.012,0,0,1-5.009,5ZM1.5,9.48V15a3.509,3.509,0,0,0,3.507,3.5h9.484A3.51,3.51,0,0,0,18,15V9.48a3.511,3.511,0,0,0-3.508-3.5h-.219V7.556a.75.75,0,0,1-1.5,0V5.975H6.711V7.556a.75.75,0,0,1-1.5,0V5.975h-.2A3.51,3.51,0,0,0,1.5,9.48Zm11.272-5A3.025,3.025,0,0,0,9.752,1.5a3.146,3.146,0,0,0-2.146.876,3,3,0,0,0-.894,2.1Z" transform="translate(0 0)" fill="#fff"/>
  </g>
</svg>
