<svg id="Iconly_Bulk_Discount" data-name="Iconly/Bulk/Discount" xmlns="http://www.w3.org/2000/svg" width="60.005" height="60.003" viewBox="0 0 60.005 60.003">
  <path id="Fill_1" data-name="Fill 1" d="M30,60a9.015,9.015,0,0,1-6.373-2.625l-2.19-2.19a4.514,4.514,0,0,0-3.192-1.317H15.165a9.045,9.045,0,0,1-9.034-9.034V41.752a4.527,4.527,0,0,0-1.32-3.2L2.656,36.405a9.045,9.045,0,0,1-.033-12.773l2.19-2.193a4.514,4.514,0,0,0,1.317-3.192V15.169a9.046,9.046,0,0,1,9.034-9.037h3.084a4.485,4.485,0,0,0,3.192-1.323L23.6,2.657a9.043,9.043,0,0,1,12.773-.033l2.19,2.19a4.492,4.492,0,0,0,3.189,1.317h3.084a9.046,9.046,0,0,1,9.034,9.037V18.25a4.527,4.527,0,0,0,1.32,3.2L57.344,23.6a9.029,9.029,0,0,1,.06,12.743c-.03.03-.057.063-.087.09l-2.13,2.13a4.514,4.514,0,0,0-1.317,3.192v3.081a9.045,9.045,0,0,1-9.034,9.034H41.751a4.514,4.514,0,0,0-3.192,1.32L36.4,57.345A9,9,0,0,1,30,60" transform="translate(0 0)" fill="#03b314"/>
  <path id="Combined_Shape" data-name="Combined Shape" d="M16.2,19.915a2.7,2.7,0,0,1-.567-.845,2.535,2.535,0,0,1-.184-1.021,2.562,2.562,0,0,1,.184-1.023,3.585,3.585,0,0,1,.537-.813,2.656,2.656,0,0,1,2.892-.581,2.358,2.358,0,0,1,.867.562,2.692,2.692,0,0,1,0,3.71,2.722,2.722,0,0,1-1.858.772A2.683,2.683,0,0,1,16.2,19.915ZM.786,19.9a2.632,2.632,0,0,1,0-3.716L16.207.767a2.625,2.625,0,1,1,3.71,3.716L4.5,19.9a2.627,2.627,0,0,1-3.71,0ZM.78,4.488A2.632,2.632,0,0,1,0,2.628,2.743,2.743,0,0,1,.761.783,2.384,2.384,0,0,1,1.666.2,2.568,2.568,0,0,1,4.488.781a2.751,2.751,0,0,1,.581.824,2.556,2.556,0,0,1-.594,2.887,2.564,2.564,0,0,1-1.85.761A2.71,2.71,0,0,1,.78,4.488Z" transform="translate(19.658 19.666)" fill="#fff"/>
</svg>
