<svg xmlns="http://www.w3.org/2000/svg" width="22.842" height="22.842" viewBox="0 0 22.842 22.842">
  <path id="icons8-instagram" d="M9.749,3A6.757,6.757,0,0,0,3,9.749v9.344a6.757,6.757,0,0,0,6.749,6.749h9.344a6.757,6.757,0,0,0,6.749-6.749V9.749A6.757,6.757,0,0,0,19.093,3Zm0,1.038h9.344a5.7,5.7,0,0,1,5.71,5.71v9.344a5.7,5.7,0,0,1-5.71,5.71H9.749a5.7,5.7,0,0,1-5.71-5.71V9.749A5.7,5.7,0,0,1,9.749,4.038Zm10.9,3.115a1.038,1.038,0,1,0,1.038,1.038A1.038,1.038,0,0,0,20.65,7.153ZM14.421,8.71a5.71,5.71,0,1,0,5.71,5.71A5.718,5.718,0,0,0,14.421,8.71Zm0,1.038a4.672,4.672,0,1,1-4.672,4.672A4.664,4.664,0,0,1,14.421,9.749Z" transform="translate(-3 -3)"/>
</svg>
