<svg id="Iconly_Light-Outline_Bag_2" data-name="Iconly/Light-Outline/Bag 2" xmlns="http://www.w3.org/2000/svg" width="19.5" height="20" viewBox="0 0 19.5 20">
  <g id="Bag_2" data-name="Bag 2" transform="translate(0 0)">
    <path id="Combined_Shape" data-name="Combined Shape" d="M5.008,20A5.011,5.011,0,0,1,0,15V9.48a5.012,5.012,0,0,1,5.008-5h.2A4.5,4.5,0,0,1,6.55,1.311,4.69,4.69,0,0,1,9.754,0a4.528,4.528,0,0,1,4.519,4.475h.219a5.012,5.012,0,0,1,5.009,5V15a5.012,5.012,0,0,1-5.009,5ZM1.5,9.48V15a3.509,3.509,0,0,0,3.507,3.5h9.484A3.51,3.51,0,0,0,18,15V9.48a3.511,3.511,0,0,0-3.508-3.5h-.219V7.556a.75.75,0,0,1-1.5,0V5.975H6.711V7.556a.75.75,0,0,1-1.5,0V5.975h-.2A3.51,3.51,0,0,0,1.5,9.48Zm11.272-5A3.025,3.025,0,0,0,9.752,1.5a3.146,3.146,0,0,0-2.146.876,3,3,0,0,0-.894,2.1Z" transform="translate(0 0)" fill="#fff"/>
  </g>
  <g id="Iconly_Bold_Bag_2" data-name="Iconly/Bold/Bag 2">
    <g id="Bag_2-2" data-name="Bag 2">
      <path id="Bag_2-3" data-name="Bag 2" d="M14.495,20H5.005A5.008,5.008,0,0,1,0,15V9.48A5.013,5.013,0,0,1,5.005,4.47h.21A4.518,4.518,0,0,1,6.556,1.31,4.617,4.617,0,0,1,9.76,0a4.527,4.527,0,0,1,4.525,4.47h.21A5.013,5.013,0,0,1,19.5,9.48V15A5.008,5.008,0,0,1,14.495,20Zm-.94-14.34a.751.751,0,0,0-.751.75V7.57a.751.751,0,0,0,1.5,0V6.41A.751.751,0,0,0,13.554,5.66Zm-7.7,0a.76.76,0,0,0-.751.75V7.57a.751.751,0,0,0,1.5,0V6.41A.751.751,0,0,0,5.856,5.66ZM9.76,1.5a3.1,3.1,0,0,0-2.152.879,3.052,3.052,0,0,0-.89,2.091h6.066A3.039,3.039,0,0,0,9.76,1.5Z" fill="#f9f9f3"/>
    </g>
  </g>
</svg>
