<svg id="Iconly_Light-Outline_Arrow_-_Left_Circle" data-name="Iconly/Light-Outline/Arrow - Left Circle" xmlns="http://www.w3.org/2000/svg" width="24" height="24" viewBox="0 0 24 24">
  <g id="Arrow_-_Left_Circle" data-name="Arrow - Left Circle" transform="translate(0)">
    <path id="Combined_Shape" data-name="Combined Shape" d="M0,12A12,12,0,1,1,12,24,12.013,12.013,0,0,1,0,12Zm1.8,0A10.2,10.2,0,1,0,12,1.8,10.212,10.212,0,0,0,1.8,12Zm11.3,4.8L8.912,12.638a.9.9,0,0,1,0-1.275L13.1,7.2a.9.9,0,0,1,1.27,1.275L10.824,12l3.542,3.527a.9.9,0,0,1,0,1.272.9.9,0,0,1-1.272,0Z" fill="#fff"/>
  </g>
</svg>
