<svg id="Iconly_Light-Outline_Wallet" data-name="Iconly/Light-Outline/Wallet" xmlns="http://www.w3.org/2000/svg" width="20.639" height="19.173" viewBox="0 0 20.639 19.173">
  <g id="Wallet" transform="translate(0)">
    <path id="Combined_Shape" data-name="Combined Shape" d="M6,19.173a6,6,0,0,1-6-6V6A6,6,0,0,1,6,0h8.645a6,6,0,0,1,6,6v7.178a6,6,0,0,1-6,6ZM1.5,6v7.178a4.5,4.5,0,0,0,4.5,4.5h8.645a4.5,4.5,0,0,0,4.5-4.5V12.9h-3.3a3.441,3.441,0,1,1,0-6.881h3.3V6a4.5,4.5,0,0,0-4.5-4.5H6A4.5,4.5,0,0,0,1.5,6ZM13.9,9.455a1.945,1.945,0,0,0,1.942,1.94h3.3V7.513h-3.3A1.946,1.946,0,0,0,13.9,9.455Zm2.088.688a.75.75,0,0,1,0-1.5H16.3a.75.75,0,0,1,0,1.5ZM5.286,6.038a.75.75,0,0,1,0-1.5h5.4a.75.75,0,1,1,0,1.5Z" transform="translate(0 0)" fill="#fff"/>
  </g>
</svg>
