<svg id="Iconly_Light-Outline_Voice_2" data-name="Iconly/Light-Outline/Voice 2" xmlns="http://www.w3.org/2000/svg" width="24" height="24" viewBox="0 0 24 24">
  <g id="Voice_2" data-name="Voice 2" transform="translate(3 1)">
    <path id="Combined_Shape" data-name="Combined Shape" d="M8,20.75V18.307A8.784,8.784,0,0,1,0,9.551a.75.75,0,0,1,1.5,0,7.25,7.25,0,1,0,14.5,0,.75.75,0,1,1,1.5,0,8.785,8.785,0,0,1-8,8.756V20.75a.75.75,0,0,1-1.5,0ZM3.938,9.519V4.831a4.811,4.811,0,1,1,9.623,0V9.519a4.811,4.811,0,1,1-9.623,0Zm1.5-4.688V9.519a3.311,3.311,0,0,0,6.622.075H9.821a.75.75,0,1,1,0-1.5h2.241V6.256H10.819a.75.75,0,1,1,0-1.5h1.242a3.311,3.311,0,0,0-6.622.076Z" transform="translate(0 0)" fill="#585b73"/>
  </g>
</svg>
