<svg xmlns="http://www.w3.org/2000/svg" width="20.904" height="24.593" viewBox="0 0 20.904 24.593">
  <g id="Group_624" data-name="Group 624" transform="translate(9289.7 2836.052)">
    <path id="Fill_1" data-name="Fill 1" d="M10.558,24.593a.961.961,0,0,1-.442-.106L5.688,22.195a10.4,10.4,0,0,1-3.007-2.233A10.136,10.136,0,0,1,.052,13.231L0,5.071A2.229,2.229,0,0,1,1.51,2.966L9.641.131A2.315,2.315,0,0,1,11.154.123l8.162,2.738a2.225,2.225,0,0,1,1.536,2.085l.052,8.166a10.136,10.136,0,0,1-2.54,6.757,10.358,10.358,0,0,1-2.977,2.268L11,24.481a.939.939,0,0,1-.439.112" transform="translate(-9289.7 -2836.052)" fill="#008312"/>
    <path id="Fill_4" data-name="Fill 4" d="M3.907,7.76a1.115,1.115,0,0,1-.782-.309L.327,4.759A1.054,1.054,0,0,1,.318,3.242a1.124,1.124,0,0,1,1.559-.01L3.891,5.167,8.808.32A1.124,1.124,0,0,1,10.367.31a1.053,1.053,0,0,1,.01,1.518L4.685,7.441a1.11,1.11,0,0,1-.778.319" transform="translate(-9284.355 -2827.901)" fill="#fff"/>
  </g>
</svg>
