<svg id="Iconly_Light-Outline_Calendar" data-name="Iconly/Light-Outline/Calendar" xmlns="http://www.w3.org/2000/svg" width="28.438" height="31.354" viewBox="0 0 28.438 31.354">
  <g id="Calendar">
    <path id="Combined_Shape" data-name="Combined Shape" d="M8.051,31.354C3.084,31.354,0,28.294,0,23.366v-13.2C0,5.586,2.751,2.644,7.241,2.331V1.093a1.094,1.094,0,0,1,2.188,0V2.3h9.593V1.093a1.093,1.093,0,1,1,2.187,0V2.331a7.849,7.849,0,0,1,5.15,2.129,7.845,7.845,0,0,1,2.079,5.713v13.3c0,4.859-3.086,7.878-8.052,7.878ZM2.188,23.366c0,3.741,2.082,5.8,5.863,5.8H20.386c3.781,0,5.864-2.021,5.864-5.691V12.986H2.188ZM26.25,10.8v-.629a5.633,5.633,0,0,0-1.44-4.163,5.639,5.639,0,0,0-3.6-1.481V5.893a1.093,1.093,0,0,1-2.187,0v-1.4H9.429v1.4a1.094,1.094,0,0,1-2.188,0V4.524C3.973,4.8,2.188,6.778,2.188,10.169V10.8ZM19.61,23.255A1.088,1.088,0,0,1,20.7,22.162h.013a1.093,1.093,0,1,1-1.1,1.093Zm-6.471,0a1.088,1.088,0,0,1,1.087-1.093h.013a1.093,1.093,0,1,1-1.1,1.093Zm-6.486,0a1.089,1.089,0,0,1,1.088-1.093h.013a1.093,1.093,0,1,1-1.1,1.093ZM19.61,17.588A1.089,1.089,0,0,1,20.7,16.493h.013a1.094,1.094,0,1,1-1.1,1.095Zm-6.471,0a1.089,1.089,0,0,1,1.087-1.095h.013a1.094,1.094,0,1,1-1.1,1.095Zm-6.486,0a1.09,1.09,0,0,1,1.088-1.095h.013a1.094,1.094,0,1,1-1.1,1.095Z"/>
  </g>
</svg>
