<svg id="Iconly_Light-Outline_Activity" data-name="Iconly/Light-Outline/Activity" xmlns="http://www.w3.org/2000/svg" width="30.1" height="30.191" viewBox="0 0 30.1 30.191">
  <g id="Activity">
    <path id="Combined_Shape" data-name="Combined Shape" d="M8.208,30.191C3.3,30.191,0,26.743,0,21.61V9.824c0-5.141,3.3-8.6,8.208-8.6h10.6a1.093,1.093,0,0,1,0,2.187H8.208c-3.657,0-6.02,2.515-6.02,6.409V21.61C2.188,25.554,4.494,28,8.208,28H20.756c3.658,0,6.022-2.51,6.022-6.395V11.344a1.094,1.094,0,0,1,2.188,0V21.61c0,5.133-3.3,8.581-8.21,8.581Zm-1.268-10a1.1,1.1,0,0,1-.2-1.534l4.365-5.674a1.089,1.089,0,0,1,.73-.417,1.072,1.072,0,0,1,.812.226l4.112,3.23,3.6-4.642a1.093,1.093,0,1,1,1.729,1.339l-4.272,5.512a1.095,1.095,0,0,1-1.541.192L12.166,15.2l-3.691,4.8a1.1,1.1,0,0,1-1.534.2ZM22.306,3.9a3.9,3.9,0,1,1,3.9,3.9A3.9,3.9,0,0,1,22.306,3.9Zm2.188,0A1.709,1.709,0,1,0,26.2,2.188,1.712,1.712,0,0,0,24.494,3.9Z" transform="translate(0 0)"/>
  </g>
</svg>
