<svg id="Iconly_Light-Outline_Profile" data-name="Iconly/Light-Outline/Profile" xmlns="http://www.w3.org/2000/svg" width="23.1" height="28.977" viewBox="0 0 23.1 28.977">
  <g id="Profile">
    <path id="Combined_Shape" data-name="Combined Shape" d="M0,23.587c0-4.808,6.593-5.363,11.551-5.363,2.856,0,11.549,0,11.549,5.392,0,4.805-6.591,5.362-11.549,5.362C8.694,28.977,0,28.977,0,23.587Zm2.188,0c0,2.126,3.15,3.2,9.363,3.2s9.361-1.068,9.361-3.175c0-2.126-3.15-3.2-9.361-3.2S2.188,21.48,2.188,23.587Zm9.317-8.1A7.743,7.743,0,0,1,11.551,0a7.743,7.743,0,0,1,0,15.486ZM5.889,7.744a5.649,5.649,0,0,0,5.62,5.661l.042,1.042V13.4A5.661,5.661,0,1,0,5.889,7.744Z" transform="translate(0)"/>
  </g>
</svg>
