<svg id="Iconly_Light-Outline_Category" data-name="Iconly/Light-Outline/Category" xmlns="http://www.w3.org/2000/svg" width="28.437" height="28.437" viewBox="0 0 28.437 28.437">
  <g id="Category">
    <path id="Combined_Shape" data-name="Combined Shape" d="M16.922,26.921c-.881-1.092-.881-2.582-.881-4.645l1.093-.037H16.041c0-4.186.264-6.2,6.2-6.2s6.2,2.012,6.2,6.2c0,2.084,0,3.59-.881,4.682-1.012,1.259-2.857,1.516-5.317,1.516S17.935,28.179,16.922,26.921Zm1.307-4.682v.037c0,1.614,0,2.781.4,3.273s1.534.7,3.615.7,3.229-.223,3.616-.7.4-1.658.4-3.273c0-3.739,0-4.045-4.011-4.045S18.229,18.533,18.229,22.239ZM.881,26.921C0,25.829,0,24.339,0,22.276l1.093-.037H0c0-4.186.264-6.2,6.2-6.2s6.2,2.012,6.2,6.2c0,2.084,0,3.59-.881,4.682C10.5,28.179,8.656,28.437,6.2,28.437S1.894,28.179.881,26.921Zm1.307-4.682v.037c0,1.614,0,2.781.4,3.273s1.534.7,3.615.7,3.229-.223,3.616-.7.4-1.658.4-3.273c0-3.739,0-4.045-4.011-4.045S2.188,18.533,2.188,22.239Zm14.734-11.36c-.881-1.092-.881-2.582-.881-4.645L17.135,6.2H16.041c0-4.186.264-6.2,6.2-6.2s6.2,2.012,6.2,6.2c0,2.084,0,3.59-.881,4.682C26.544,12.138,24.7,12.4,22.239,12.4S17.935,12.138,16.922,10.879ZM18.229,6.2v.037c0,1.614,0,2.781.4,3.273s1.534.7,3.615.7,3.229-.223,3.616-.7.4-1.658.4-3.273c0-3.739,0-4.045-4.011-4.045S18.229,2.491,18.229,6.2ZM.881,10.879C0,9.787,0,8.3,0,6.234L1.093,6.2H0C0,2.012.264,0,6.2,0s6.2,2.012,6.2,6.2c0,2.084,0,3.59-.881,4.682C10.5,12.138,8.656,12.4,6.2,12.4S1.894,12.138.881,10.879ZM2.188,6.2v.037c0,1.614,0,2.781.4,3.273s1.534.7,3.615.7,3.229-.223,3.616-.7.4-1.658.4-3.273c0-3.739,0-4.045-4.011-4.045S2.188,2.491,2.188,6.2Z"/>
  </g>
</svg>
